{"title":"Project Alf","uid":4955819,"size":732379668,"categoryP":"other","categoryS":"other","magnet":"?xt=urn:btih:0e4c4d1dffbb31a252dca16b9fe4603f36544ccb&amp;dn=Project+Alf&amp;tr=udp%3A%2F%2Ftracker.openbittorrent.com%3A80&amp;tr=udp%3A%2F%2Fopen.demonii.com%3A1337&amp;tr=udp%3A%2F%2Ftracker.coppersurfer.tk%3A6969&amp;tr=udp%3A%2F%2Fexodus.desync.com%3A6969","seeders":2,"leechers":1,"uploader":"Filmofiel","files":6,"time":1245100033,"description":"Six years ago, the space alien, ALF, was on his way back to his new home...When the Alien Task Force finally caught him. Now, the story continues to where the series ended. ALF is now protected by the Alien Task Force, but the leader wants to terminate ALF. So two officers decide to save ALF by taking ALF away from him. But the man the officers took ALF to wants to finally reveal ALF to the world. Which leads him to more danger.\n--------------------------------\nAls Alf eindelijk weer terug keert naar zijn nieuwe thuis wordt hij gevangen genomen door de Alien Task Force waarvan de leider hem een kopje kleiner wil maken. Twee medewerkers verzetten zich hiertegen en ontvoeren Alf, maar dan wel om hem aan de wereld te kunnen tonen. Daardoor is Alf nu nog verder van huis.\n\nAdded:\n\nRepaired dutch subtitles: Alf season 1-4 in dutch.\nToegevoegd Gerepareerde ondertitelingen: Alf seizoenen 1-4 in het nederlands.\nGeneral (Project: Alf)\n\nComplete name                    : C:Documents and SettingsIkBureaubladProject AlfProject ALF - DVDrip (Comedy, Sci-Fi, Family 1996 XviD).avi\nFormat                           : AVI\nFormat/Info                      : Audio Video Interleave\nFile size                        : 697 MiB\nDuration                         : 1h 31mn\nOverall bit rate                 : 1 061 Kbps\nWriting application              : FairUse Wizard - http://fairusewizard.com\nWriting library                  : The best and REALLY easy backup tool\n\nVideo\nFormat                           : MPEG-4 Visual\nFormat profile                   : Streaming Video@L1\nFormat settings, BVOP            : Yes\nFormat settings, QPel            : No\nFormat settings, GMC             : No warppoints\nFormat settings, Matrix          : Default (H.263)\nMuxing mode                      : Packed bitstream\nCodec ID                         : XVID\nCodec ID/Hint                    : XviD\nDuration                         : 1h 31mn\nBit rate                         : 860 Kbps\nWidth                            : 528 pixels\nHeight                           : 384 pixels\nDisplay aspect ratio             : 1.375\nFrame rate                       : 23.976 fps\nResolution                       : 24 bits\nColorimetry                      : 4:2:0\nScan type                        : Progressive\nBits/(Pixel*Frame)               : 0.177\nStream size                      : 565 MiB (81%)\nWriting library                  : XviD 1.1.0 (UTC 2005-11-22)\n\nAudio\nFormat                           : AC-3\nFormat/Info                      : Audio Coding 3\nCodec ID                         : 2000\nDuration                         : 1h 31mn\nBit rate mode                    : Constant\nBit rate                         : 192 Kbps\nChannel(s)                       : 2 channels\nChannel positions                : L R\nSampling rate                    : 48.0 KHz\nStream size                      : 126 MiB (18%)\nAlignment                        : Split accross interleaves\nInterleave, duration             : 42 ms (1.00 video frame)\nInterleave, preload duration     : 500 ms\n &lt;a href=&quot;\nhttp://www.moviemeter.nl/film/17346&quot; rel=&quot;nofollow&quot; target=&quot;_NEW&quot;&gt;\nhttp://www.moviemeter.nl/film/17346&lt;/a&gt;\n\n","torrent":{"xt":"urn:btih:0e4c4d1dffbb31a252dca16b9fe4603f36544ccb","amp;dn":"Project+Alf","amp;tr":["udp%3A%2F%2Ftracker.openbittorrent.com%3A80","udp%3A%2F%2Fopen.demonii.com%3A1337","udp%3A%2F%2Ftracker.coppersurfer.tk%3A6969","udp%3A%2F%2Fexodus.desync.com%3A6969"],"infoHash":"0e4c4d1dffbb31a252dca16b9fe4603f36544ccb","infoHashBuffer":{"type":"Buffer","data":[14,76,77,29,255,187,49,162,82,220,161,107,159,228,96,63,54,84,76,203]},"announce":[],"urlList":[]}}